<svg xmlns="http://www.w3.org/2000/svg" viewBox="0 0 512 512" role="img" aria-label="Evaraos light app icon">
  <defs><linearGradient id="bg" x1="64" y1="64" x2="448" y2="448"><stop offset="0" stop-color="#ffffff"/><stop offset="1" stop-color="#e8eaee"/></linearGradient><linearGradient id="mark" x1="120" y1="96" x2="398" y2="414"><stop offset="0" stop-color="#ff3131"/><stop offset=".55" stop-color="#d80012"/><stop offset="1" stop-color="#8e000b"/></linearGradient></defs>
  <rect width="512" height="512" rx="112" fill="url(#bg)"/>
  <path d="M94 409c38-42 74-80 108-114 42-42 90-86 144-133h66c6 0 9 7 5 12l-38 50c-3 4-8 7-14 7h-87c-15 13-29 26-42 39h130c6 0 9 7 5 12l-37 49c-3 4-8 7-14 7H177c-24 24-52 55-83 91-5 6-14 2-14-6 0-5 1-10 4-14z" fill="url(#mark)"/>
  <path d="M99 173c26-28 55-51 87-70h216c7 0 10 8 6 13l-38 50c-3 4-8 7-14 7H99z" fill="url(#mark)"/>
  <path d="M101 251h231c6 0 9 7 5 12l-36 48c-3 4-8 7-14 7H101z" fill="url(#mark)" opacity=".95"/>
  <rect x="20" y="20" width="472" height="472" rx="96" fill="none" stroke="#111827" stroke-opacity=".08" stroke-width="2"/>
</svg>
